<svg width="141" height="23" viewBox="0 0 141 23" fill="none" xmlns="http://www.w3.org/2000/svg">
<path d="M14.3946 0.333984H0V22.6647H2.99755V12.8215H14.216V10.1772H2.99755V2.97822H14.394V0.333984H14.3946Z" fill="#F8F2F2"/>
<path d="M60.692 11.4894C64.0163 11.166 66.3016 9.21699 66.3016 6.27916C66.3016 3.19422 64.1943 0.333984 58.7033 0.333984H50.2153V22.6647H58.7033C64.0163 22.6647 67.0727 20.6468 67.0727 16.6215C67.0727 13.2429 64.8771 11.6365 60.692 11.4894ZM63.1849 6.57276C63.1849 8.95256 61.5228 10.1375 58.7033 10.1375H53.2129V2.97822H58.7033C61.5228 2.97822 63.1849 4.22212 63.1849 6.57276ZM53.2129 20.0205V12.7824H58.7923C62.2651 12.7824 63.9567 13.9481 63.9567 16.416C63.9567 18.8548 62.2651 20.0205 58.7923 20.0205H53.2129Z" fill="#F8F2F2"/>
<path d="M42.0509 0.0161385C39.7781 0.0161385 38.8308 1.28177 38.8308 2.50085C38.8308 2.50333 38.8314 2.50581 38.8314 2.5083C38.8314 2.53933 38.8383 2.56913 38.8396 2.59954C38.8853 3.64606 39.7506 4.48216 40.8189 4.48216C41.9117 4.48216 42.797 3.60944 42.8052 2.5294C42.8052 2.52443 42.807 2.51947 42.807 2.51388C42.807 2.50395 42.8045 2.49526 42.8039 2.48533C42.7932 2.17808 42.7544 1.91738 42.7136 1.79696C44.276 2.12532 45.3657 4.89121 45.3657 8.54782C45.3657 14.9703 41.5594 20.5965 37.3154 20.5965C34.6633 20.5965 33.1956 19.1434 33.1956 15.7208C33.1956 13.3298 33.4796 11.7358 34.758 4.46912C35.326 1.28115 35.494 0.333322 35.494 0.333322H32.4407C32.4407 0.333322 31.4908 5.78193 31.2068 7.32874C29.6444 16.1422 27.2713 20.8776 23.8668 20.8776C21.5941 20.8776 20.3627 18.4867 20.3627 15.205C20.3627 10.6104 22.6994 4.73417 28.287 0.186834L28.097 0C26.8186 0.468637 25.6349 0.312218 24.4506 0.312218C22.6982 0.312218 22.0355 0.077589 20.9934 0.077589C18.91 0.077589 18.152 1.71875 17.347 4.48464L17.5363 4.57837C18.1043 3.07811 19.0517 2.84348 20.2831 2.84348C20.9458 2.84348 21.8455 2.98438 22.8875 2.98438C23.4085 2.98438 24.0242 2.93721 24.5923 2.84348C19.5727 7.25053 17.189 12.9549 17.189 16.7996C17.189 20.8311 19.4617 22.9881 22.2085 22.9881C25.2393 22.9881 28.5064 20.9254 30.8269 12.7209C30.6845 13.7053 30.3058 16.0026 30.3058 17.2216C30.3058 21.1129 32.2476 22.9881 35.6571 22.9881C41.387 22.9881 46.8328 13.9865 46.8328 7.37654C46.8335 3.90738 45.6021 0.0161385 42.0509 0.0161385Z" fill="#F8F2F2"/>
<path d="M71.8364 22.9999C72.9458 22.9999 73.8452 22.1095 73.8452 21.0112C73.8452 19.9128 72.9458 19.0225 71.8364 19.0225C70.727 19.0225 69.8276 19.9128 69.8276 21.0112C69.8276 22.1095 70.727 22.9999 71.8364 22.9999Z" fill="#F8F2F2"/>
<path d="M99.9111 22.879L95.3258 0H88.9676L84.3823 22.879L78.6966 0H75.4258L81.1421 23H87.5614L92.1467 0.151316L96.732 23H103.151L108.868 0H105.597L99.9111 22.879Z" fill="#F8F2F2"/>
<path d="M113.906 23V0H110.819V23H113.906Z" fill="#F8F2F2"/>
<path d="M125.003 10.8947L135.763 0H131.759L121.274 10.6224V0H118.186V23H121.274V11.2276L132.829 23H136.925L125.003 10.8947Z" fill="#F8F2F2"/>
<path d="M141 23V0H137.913V23H141Z" fill="#F8F2F2"/>
</svg>
